<mxfile host="app.diagrams.net" modified="2024-04-04T01:22:23.573Z" agent="Mozilla/5.0 (Windows NT 10.0; Win64; x64; rv:124.0) Gecko/20100101 Firefox/124.0" version="24.2.2" etag="1XQNFqaprnl5FEtru5SU" type="github">
  <diagram name="Page-1" id="o-IBHCQjUkGzQVQD3aF1">
    <mxGraphModel>
      <root>
        <mxCell id="0" />
        <mxCell id="1" parent="0" />
      </root>
    </mxGraphModel>
  </diagram>
</mxfile>
